<?xml version="1.0" encoding="UTF-8"?>
<svg id="_图层_3" data-name="图层 3" xmlns="http://www.w3.org/2000/svg" viewBox="0 0 425.2 425.2">
  <defs>
    <style>
      .cls-1 {
        fill: #fff;
      }

      .cls-2 {
        fill: #af7f6c;
      }

      .cls-3 {
        fill: #6d958c;
      }

      .cls-4 {
        fill: #d8d9cf;
      }
    </style>
  </defs>
  <polygon class="cls-3" points="244.5 325.06 361.34 325.06 336.36 244.02 283.44 203.5 258.74 244.02 244.5 325.06"/>
  <path class="cls-3" d="M250.78,164.37l-5.62-8.09-5.66-7.91-4.39-8.62-2.9-9.45-4.85-8.69-8.46-4.14-8.02-4.26-7.28-5.35-6.4-6.66-8.5-3.56-6.49-6.53-7.73-4.7-7.77-4.04-4.56,7.41-4.18,7.96-3.25,8.41-3.76,8.17-3.44,8.32-3.69,8.2-4.99,7.58-3.83,8.14-3.35,8.37-4.77,7.78-.04,9.1-4.66,7.9-.75,8.84-1.85,8.57-1.22,8.73-2.69,8.38-2.98,8.3-2.14,8.51-1.69,8.62-1.48,8.67-3.07,8.28-1.9,8.57-1.59,8.64-1.88,8.57-2.43,8.44-2.52,8.42-1.26,8.72-.87,8.82-2.96,8.08,9.02-.61,9.24.79,9.24,1.19,9.24-2.43,9.24.45,9.24-.54,9.24,1.53,9.24-.18,9.24-1.36,9.24,2.45,9.24-2.01,9.24-.44,9.25,2.26,9.24-2.31,9.25.14,9,.98,2.2-8.99,2.36-9.21,1.47-9.36,2.13-9.25.12-9.61.98-9.46,2.3-9.22,2.44-9.2,1.27-9.36,4.97-7.5,4.49-7.98-.51-8.99-3.88-8.28-.2-8.94-2.29-8.57-.21-8.93-3.77-8.37.58-9.17ZM164.55,136.14l-.02,8.4.17,8.13-1.27,7.97-2.89,7.46-5.35,7.53-4.34,8.57-4.66,8.36-6.21,7.9-6.69-6.83,3.39-7.37,6.53-6.26,4.72-7.53,4.08-7.85,1.95-7.93,1.25-8.12.22-8.24.78-8.16,5-6.5,5.22-6.34,6.32-5.39,4.97-6.08,7.29,6.26-7.24,6.94-4.97,8.87-8.23,6.19Z"/>
  <g>
    <polygon class="cls-1" points="192.35 387.77 185.1 383.51 177.94 379.14 171.22 374.4 172.86 365.95 174.94 357.49 181.93 361.74 191.94 367.77 192.57 368.33 193.1 368.12 202.49 370.67 211.93 372.96 221.3 375.55 230.66 378.46 239.61 374.41 248.17 369.58 257.1 365.73 259.15 376.54 253.14 381.82 247.52 387.75 239.24 390.33 230.82 392.25 222.77 395.32 212.66 392.71 202.5 390.29 192.35 387.77"/>
    <polygon class="cls-2" points="231.19 384.56 229.16 383.43 219.86 381.18 210.61 378.73 201.33 376.46 192.09 374.15 191.87 373.94 184.94 370.92 178.33 366.44 177.64 371.63 185.94 377.19 194.48 382.7 203.99 384.48 213.23 387.16 222.58 389.87 229.91 387.26 237.26 385.14 244.48 382.48 253.28 374.7 253.09 374.27 245.59 377.21 238.21 380.49 231.19 384.56"/>
    <g>
      <path class="cls-1" d="M309.7,264.43l1.86,9.6,3.97,8.96,2.29,9.46,2.56,9.33-4.53,8.22-3.2,8.88-2.93,9.01-4.25,8.4-5.13,8.01-3.63,8.59-6.6,2.73-5.92,4.47-9.09,3.5-9.01,3.7-8.35,5.08-8.7,4.34-9.03,3.67-8.57,4.91-2.41-1.42-9.09-3.02-9.28-2.32-9.41-1.83-9.18-2.53-.21-1.01-8.87-3.79-8.7-5.14-8.39-5.64-8.17-5.94-1.01-1.68-3.29-8.47-2.03-8.87-2.08-8.86-1.95-8.89-3.67-8.42-1.3-9.04-.88-8.72-1.25-8.71-2.11-8.61.21-8.57,5.86-5.84,5.98-6.18,5.83-6.34,7.17-4.94,5.62-6.56,6.06-6.11,5.87-6.32,6.48-5.93,9.73-1.98,9.46-2.39,9.7-1.48,9.31-4.04,8.29,5.26,8.23,4.78,9.16,2.92,8.13,4.99,8.13,5,8.77,3.73,8.07,4.68,6.58,6.43,5.89,7.31,7.39,6.01,5.59,7.61ZM293.44,305.39l1.18-2.47-1.8.61-10.12-4.98,1.66-7.19-3.98-2.08-5.9,7.58-6.69,7.89-.06-10.39,1.56-9.34-.03-9.44-2.84-7.26-4.28-6.14-8.19-4.85-8.61-4.87-7.83,1.76-4.35,7.24-5.33,7.15-12.34-2.86-6.99-1.65-7.29-1.22-6.53,5.51-2.18,7.47-3.07,7.11-3.49,6.52-8.84,1.54-9.01,1.71-3.53,6.56,4.74,7.93,4.24,8.63,7.46,3.33,6.7,4.41,6.78,4.38,8.79.18,8.68-1.61,8.77.84,8.73-.14,8.72-.5,8.62-1.36,8.29-1.19,7.89-2.73,7.87-2.8,7.73-2.98,8.08-4.19,6.77-6.1Z"/>
      <polygon class="cls-1" points="294.13 303.03 293.07 305.02 286.56 311.34 278.94 316.37 270.69 318.12 262.93 321.25 254.78 323.17 246.9 325.97 238.2 326.82 229.47 327.17 220.75 327.5 212.02 327.58 203.26 327.29 194.66 327.31 187.37 324.19 180.76 319.62 174.32 315.11 168.37 307.79 164.75 299.28 167.86 292.34 177.1 291.03 186.64 290.49 188.99 282.8 192.29 275.78 194.75 268.44 201.09 262.5 208.6 263.22 215.58 265.36 227.63 267.72 232.5 261.03 236.81 253.12 245.15 253.45 254.09 257.07 262.42 261.89 265.33 268.8 269.18 275.59 269.43 285.02 268.99 294.39 267.94 304.38 274.61 296.99 280.78 290 284.59 291.32 282.93 298.38 292.73 303.78 294.13 303.03"/>
    </g>
    <path class="cls-2" d="M304.57,267.24l-6.46-6.03-4.46-7.77-6.53-5.98-5.26-7.29-8.2-4.15-8.59-3.04-8.38-3.46-7.98-4.27-7.38-5.46-8.39-3.44-8.19-3.84-8.46,2.68-8.62,2.05-8.92.93-8.31,3.22-7.24,5.72-5.84,7.22-6.96,6.04-6.78,6.22-7.11,5.89-6.17,6.89-5.73,6.74.7,7.46-.26,8.07,1.21,7.89.72,8,3.72,8.02,1.61,8.56,1.8,8.51,3.18,8.13,2.44,8.34,1.76,8.48,7.86,4.7,7.1,5.96,7.41,5.54,8.11,4.5,9.84,1.54,9.6,2.85,9.39,3.58,9.85,2.28,8.27-4.55,8.38-4.2,8.5-3.96,8.8-3.33,8.09-4.83,8.62-3.72,11.46-4.96,4.09-7.79,2.53-8.42,4.61-7.47,3.78-7.85,3.47-8,2.69-8.14-1.29-8.67-2.74-8.44-2.81-8.43-2.53-8.52ZM266.11,352.38l-8.1,4.98-8.71,2.53-3.32-5.42,9.09-3.53,8.66-4.23,9.93-5.13,3.32,7.35-10.88,3.44ZM298.76,308.6l-8.17,7.03-9.62,4.83-7.94,3.46-8.63,1.76-8.39,2.56-8.09,3.67-9.14.98-9.13.07-9.18-1.27-9.1.99-9.12.54-9.26.8-7.84-4.78-7.12-5.73-8.34-3.7-3.37-7.22-5.13-6.14-3.73-7,3.59-6.06,3.72-5.53,8.58-1.79,8.3-1.93,3.9-9.44,4.94-9.38,9.24-7.72,8.46,1.22,8.86-.49,8.21,3.21,4.59-6.33,3.76-7.42,12.83-1.56,6.98,4.01,7.27,2.83,6.64,4.2,3.36,8.8,3.92,8.51.44,7.08-.65,6.81,4.92-4.51,11.3,4.15-1.06,7.03,4.77,1.82,6.41.34-1.95,11.34Z"/>
    <polygon class="cls-1" points="215.21 318.73 215.76 311.47 208.62 309.19 199.5 315.66 194.67 307.53 189.62 300.21 197.3 294.62 205.37 289.07 212.1 290.55 218.23 292.51 219.48 285.63 222.32 283.64 222.14 284.11 220.51 275.1 219.69 265.94 227.5 264.62 235.43 264.52 243.06 263.63 250.38 270.03 255.68 267.28 266 271.65 276.22 276.03 272.65 284.45 269.05 292.61 262.77 290.43 256.35 287.35 246.45 292.78 235.99 297.35 235.73 305.62 234.35 313.46 233.12 321.2 224.18 319.69 215.21 318.73"/>
    <polygon class="cls-4" points="249.21 277.22 241.33 268.85 233.64 270.43 226.12 271.03 226.71 278.13 238.7 276.38 242.48 280.27 233.68 284.87 224.97 289.54 223.48 300.4 214.74 298.09 206.44 295.58 197.02 301.59 201.02 307.7 207.56 302.69 214.25 304.89 220.78 307.1 222.63 307.57 221.1 314.28 228.3 314.92 229.63 304.44 231.4 294.12 239.45 289.7 247.92 285.78 256.16 281.42 266.1 285.16 268.45 279.25 262.49 276.11 255.91 274.1 249.21 277.22"/>
  </g>
</svg>